<svg xmlns="http://www.w3.org/2000/svg" viewBox="0 0 40 40"><symbol id="a" viewBox="0 0 40 40" xmlns="http://www.w3.org/2000/svg"><path d="M32.5 22.5h-25c-.69 0-1.25.56-1.25 1.25v7.5c0 .69.56 1.25 1.25 1.25h25c.69 0 1.25-.56 1.25-1.25v-7.5c0-.69-.56-1.25-1.25-1.25zm0-15h-25c-.69 0-1.25.56-1.25 1.25v7.5c0 .69.56 1.25 1.25 1.25h25c.69 0 1.25-.56 1.25-1.25v-7.5c0-.69-.56-1.25-1.25-1.25z" fill="#C3DDF8"/><path d="M32.5 22.5h-25c-.69 0-1.25.56-1.25 1.25v7.5c0 .69.56 1.25 1.25 1.25h25c.69 0 1.25-.56 1.25-1.25v-7.5c0-.69-.56-1.25-1.25-1.25zm0-15h-25c-.69 0-1.25.56-1.25 1.25v7.5c0 .69.56 1.25 1.25 1.25h25c.69 0 1.25-.56 1.25-1.25v-7.5c0-.69-.56-1.25-1.25-1.25z" stroke="#0271E1" stroke-width="2" stroke-linecap="round" stroke-linejoin="round" fill="none"/><path d="M28.125 14.375a1.875 1.875 0 1 0 0-3.75 1.875 1.875 0 0 0 0 3.75zm0 15a1.875 1.875 0 1 0 0-3.75 1.875 1.875 0 0 0 0 3.75z" fill="#0271E1"/></symbol><use xlink:href="#a" xmlns:xlink="http://www.w3.org/1999/xlink"/></svg>