<svg xmlns="http://www.w3.org/2000/svg" viewBox="0 0 40 40"><symbol id="a" viewBox="0 0 40 40" xmlns="http://www.w3.org/2000/svg"><path opacity=".2" d="M35 28.75v3.75a1.25 1.25 0 0 1-1.25 1.25H30a1.25 1.25 0 0 1-1.25-1.25v-3.75H35zm-23.75 0v3.75A1.25 1.25 0 0 1 10 33.75H6.25A1.25 1.25 0 0 1 5 32.5v-3.75h6.25z" fill="#0271E1"/><path d="M35 18.75 30.33 8.242a1.25 1.25 0 0 0-1.142-.742H10.812a1.25 1.25 0 0 0-1.142.742L5 18.75h30z" fill="#C3DDF8"/><path d="M2.5 18.75h35m-2.5 10v3.75a1.25 1.25 0 0 1-1.25 1.25H30a1.25 1.25 0 0 1-1.25-1.25v-3.75m-17.5 0v3.75A1.25 1.25 0 0 1 10 33.75H6.25A1.25 1.25 0 0 1 5 32.5v-3.75m5-5h2.5m15 0H30" stroke="#0271E1" stroke-width="2" stroke-linecap="round" stroke-linejoin="round" fill="none"/><path d="M35 18.75 30.33 8.242a1.25 1.25 0 0 0-1.142-.742H10.812a1.25 1.25 0 0 0-1.142.742L5 18.75v10h30v-10z" stroke="#0271E1" stroke-width="2" stroke-linecap="round" stroke-linejoin="round" fill="none"/></symbol><use xlink:href="#a" xmlns:xlink="http://www.w3.org/1999/xlink"/></svg>