<svg xmlns="http://www.w3.org/2000/svg" viewBox="0 0 40 40"><symbol id="a" viewBox="0 0 40 40" xmlns="http://www.w3.org/2000/svg"><path d="M20 35c8.284 0 15-6.716 15-15 0-8.284-6.716-15-15-15-8.284 0-15 6.716-15 15 0 8.284 6.716 15 15 15z" fill="#C3DDF8"/><path d="M20 35c8.284 0 15-6.716 15-15 0-8.284-6.716-15-15-15-8.284 0-15 6.716-15 15 0 8.284 6.716 15 15 15z" stroke="#0271E1" stroke-width="2" stroke-linecap="round" stroke-linejoin="round" fill="none"/><path d="M26.033 17.311c.118-1.932-1.339-2.85-3.274-3.384l.404-2.637-1.52-.274-.393 2.567c-.4-.072-.81-.137-1.217-.202l.396-2.584-1.52-.274-.404 2.636c-.33-.053-.655-.105-.97-.161l.001-.008-2.097-.38-.262 1.714s1.126.18 1.104.199c.616.111.759.524.767.86l-.46 3.004c.042.008.097.02.159.04l-.16-.029-.646 4.207c-.059.2-.223.505-.653.428.017.022-1.105-.2-1.105-.2l-.596 1.863 1.979.356c.368.067.73.14 1.085.206l-.409 2.666 1.52.274.404-2.638c.415.085.818.16 1.212.232l-.403 2.625 1.52.274.409-2.661c2.58.306 4.473-.05 5.083-2.544.492-2.008-.277-3.082-1.672-3.711.954-.315 1.633-1.05 1.718-2.464zm-3.001 5.317c-.305 1.993-3.503 1.183-4.533.998l.542-3.532c1.03.186 4.31.456 3.99 2.534zm.056-5.111c-.278 1.812-2.941 1.115-3.8.96l.491-3.204c.859.155 3.6.353 3.31 2.244z" fill="#0271E1"/></symbol><use xlink:href="#a" xmlns:xlink="http://www.w3.org/1999/xlink"/></svg>