<svg xmlns="http://www.w3.org/2000/svg" viewBox="0 0 40 40"><symbol id="a" viewBox="0 0 40 40" xmlns="http://www.w3.org/2000/svg"><path d="M20 33.75S4.375 25 4.375 14.375A8.126 8.126 0 0 1 20 11.245a8.126 8.126 0 0 1 15.625 3.13C35.625 25 20 33.75 20 33.75z" fill="#C3DDF8"/><path d="M5 20h6.25l2.5-3.75 5 7.5 2.5-3.75H25" stroke="#0271E1" stroke-width="2" stroke-linecap="round" stroke-linejoin="round" fill="none"/><path d="M4.393 14.999a11.028 11.028 0 0 1-.018-.624A8.126 8.126 0 0 1 20 11.245h0a8.126 8.126 0 0 1 15.625 3.13C35.625 25 20 33.75 20 33.75S13.759 30.255 9.165 25" stroke="#0271E1" stroke-width="2" stroke-linecap="round" stroke-linejoin="round" fill="none"/></symbol><use xlink:href="#a" xmlns:xlink="http://www.w3.org/1999/xlink"/></svg>