<svg xmlns="http://www.w3.org/2000/svg" viewBox="0 0 40 40"><symbol id="a" viewBox="0 0 40 40" xmlns="http://www.w3.org/2000/svg"><path d="M23.745 33.749v-10h-7.5v10l-9.999.001V18.053a1.25 1.25 0 0 1 .41-.925L19.153 5.763a1.25 1.25 0 0 1 1.682 0l12.501 11.365a1.25 1.25 0 0 1 .41.925V33.75l-10.002-.001z" fill="#C3DDF8"/><path d="M33.746 33.75V18.053a1.249 1.249 0 0 0-.409-.925l-12.5-11.365a1.25 1.25 0 0 0-1.683 0L6.655 17.128a1.251 1.251 0 0 0-.409.925V33.75m-3.75 0h35" stroke="#0271E1" stroke-width="2" stroke-linecap="round" stroke-linejoin="round" fill="none"/><path d="M23.744 33.749v-8.75a1.25 1.25 0 0 0-1.25-1.25h-5a1.25 1.25 0 0 0-1.25 1.25v8.75" stroke="#0271E1" stroke-width="2" stroke-linecap="round" stroke-linejoin="round" fill="none"/></symbol><use xlink:href="#a" xmlns:xlink="http://www.w3.org/1999/xlink"/></svg>