<svg xmlns="http://www.w3.org/2000/svg" viewBox="0 0 40 40"><symbol id="a" viewBox="0 0 40 40" xmlns="http://www.w3.org/2000/svg"><path d="M20 5a16.251 16.251 0 0 1 16.194 14.89 1.252 1.252 0 0 1-1.246 1.36H26.25C26.25 10 20 5 20 5zm0 0A16.252 16.252 0 0 0 3.804 19.89a1.254 1.254 0 0 0 1.247 1.36h8.697C13.75 10 20 5 20 5z" fill="#C3DDF8"/><path d="M27.5 31.25a3.75 3.75 0 0 1-7.5 0v-10m-14.948 0a1.253 1.253 0 0 1-1.247-1.36 16.25 16.25 0 0 1 32.388 0 1.255 1.255 0 0 1-1.246 1.36H5.052z" stroke="#0271E1" stroke-width="2" stroke-linecap="round" stroke-linejoin="round" fill="none"/><path d="M13.75 21.25C13.75 10 20 5 20 5s6.25 5 6.25 16.25" stroke="#0271E1" stroke-width="2" stroke-linecap="round" stroke-linejoin="round" fill="none"/></symbol><use xlink:href="#a" xmlns:xlink="http://www.w3.org/1999/xlink"/></svg>