<svg xmlns="http://www.w3.org/2000/svg" viewBox="0 0 40 40"><symbol id="a" viewBox="0 0 40 40" xmlns="http://www.w3.org/2000/svg"><path d="M20.352 34.996a15.002 15.002 0 0 0 13.112-8.375l-8.482-5.217a1.25 1.25 0 0 0-.488-.174l-3.566-.481a1.25 1.25 0 0 0-1.308.73l-2.14 4.803a1.25 1.25 0 0 0 .223 1.357l2.938 3.178a1.25 1.25 0 0 1 .31 1.085l-.6 3.094zM10.149 8.688 8.75 11.993a1.25 1.25 0 0 0-.02.926l1.796 4.791a1.25 1.25 0 0 0 .908.784l.848.182 1.3-3.089a1.25 1.25 0 0 1 1.153-.764h3.335c.211 0 .419-.054.604-.156l1.913-1.056a1.25 1.25 0 0 0 .234-.168l4.205-3.802a1.25 1.25 0 0 0 .253-1.537L23.82 5.492a15.03 15.03 0 0 0-13.673 3.196z" fill="#C3DDF8"/><path d="M20 35c8.284 0 15-6.716 15-15 0-8.284-6.716-15-15-15-8.284 0-15 6.716-15 15 0 8.284 6.716 15 15 15z" stroke="#0271E1" stroke-width="2" stroke-linecap="round" stroke-linejoin="round" fill="none"/><path d="m33.464 26.62-8.482-5.216a1.25 1.25 0 0 0-.488-.174l-3.566-.481a1.25 1.25 0 0 0-1.308.73l-2.14 4.803a1.25 1.25 0 0 0 .223 1.357l2.938 3.178a1.25 1.25 0 0 1 .31 1.085l-.6 3.094M10.149 8.688 8.75 11.993a1.25 1.25 0 0 0-.02.926l1.796 4.791a1.25 1.25 0 0 0 .908.784l3.349.72a1.249 1.249 0 0 1 .862.677l.595 1.229a1.25 1.25 0 0 0 1.125.705h2.099" stroke="#0271E1" stroke-width="2" stroke-linecap="round" stroke-linejoin="round" fill="none"/><path d="m23.822 5.492 1.459 2.612a1.25 1.25 0 0 1-.253 1.537l-4.205 3.802a1.25 1.25 0 0 1-.234.168l-1.913 1.056a1.25 1.25 0 0 1-.604.156h-3.336a1.25 1.25 0 0 0-1.152.764l-1.3 3.09" stroke="#0271E1" stroke-width="2" stroke-linecap="round" stroke-linejoin="round" fill="none"/></symbol><use xlink:href="#a" xmlns:xlink="http://www.w3.org/1999/xlink"/></svg>