<svg xmlns="http://www.w3.org/2000/svg" viewBox="0 0 40 40"><symbol id="a" viewBox="0 0 40 40" xmlns="http://www.w3.org/2000/svg"><path d="M20 25a5 5 0 1 0 0-10 5 5 0 0 0 0 10zm16.25-15H27.5l10 8.75v-7.5A1.25 1.25 0 0 0 36.25 10zm0 20a1.25 1.25 0 0 0 1.25-1.25v-7.5L27.5 30h8.75zM2.5 11.25v7.5l10-8.75H3.75a1.25 1.25 0 0 0-1.25 1.25zm0 17.5A1.25 1.25 0 0 0 3.75 30h8.75l-10-8.75v7.5z" fill="#C3DDF8"/><path d="M36.25 10H3.75c-.69 0-1.25.56-1.25 1.25v17.5c0 .69.56 1.25 1.25 1.25h32.5c.69 0 1.25-.56 1.25-1.25v-17.5c0-.69-.56-1.25-1.25-1.25z" stroke="#0271E1" stroke-width="2" stroke-linecap="round" stroke-linejoin="round" fill="none"/><path d="M20 25a5 5 0 1 0 0-10 5 5 0 0 0 0 10zm7.5-15 10 8.75M27.5 30l10-8.75M12.5 10l-10 8.75M12.5 30l-10-8.75" stroke="#0271E1" stroke-width="2" stroke-linecap="round" stroke-linejoin="round" fill="none"/></symbol><use xlink:href="#a" xmlns:xlink="http://www.w3.org/1999/xlink"/></svg>