<svg xmlns="http://www.w3.org/2000/svg" viewBox="0 0 40 40"><symbol id="a" viewBox="0 0 40 40" xmlns="http://www.w3.org/2000/svg"><path d="M33.125 20a3.125 3.125 0 1 0 0-6.25 3.125 3.125 0 0 0 0 6.25zm-26.25 0a3.125 3.125 0 1 0 0-6.25 3.125 3.125 0 0 0 0 6.25zm7.5-7.5a3.125 3.125 0 1 0 0-6.25 3.125 3.125 0 0 0 0 6.25zm11.25 0a3.125 3.125 0 1 0 0-6.25 3.125 3.125 0 0 0 0 6.25zm3.006 11.852a6.804 6.804 0 0 1-3.23-4.047 5.625 5.625 0 0 0-10.802 0 6.803 6.803 0 0 1-3.23 4.047 5.001 5.001 0 0 0 4.332 9.003 11.33 11.33 0 0 1 8.598 0 5 5 0 0 0 4.332-9.003z" fill="#C3DDF8"/><path d="M33.125 20a3.125 3.125 0 1 0 0-6.25 3.125 3.125 0 0 0 0 6.25zm-26.25 0a3.125 3.125 0 1 0 0-6.25 3.125 3.125 0 0 0 0 6.25zm7.5-7.5a3.125 3.125 0 1 0 0-6.25 3.125 3.125 0 0 0 0 6.25zm11.25 0a3.125 3.125 0 1 0 0-6.25 3.125 3.125 0 0 0 0 6.25zm3.006 11.852a6.804 6.804 0 0 1-3.23-4.047h0a5.625 5.625 0 0 0-10.802 0h0a6.803 6.803 0 0 1-3.23 4.047 5.001 5.001 0 0 0 4.332 9.003 11.33 11.33 0 0 1 8.598 0 5 5 0 0 0 4.332-9.003h0z" stroke="#0271E1" stroke-width="2" stroke-linecap="round" stroke-linejoin="round" fill="none"/></symbol><use xlink:href="#a" xmlns:xlink="http://www.w3.org/1999/xlink"/></svg>