<svg xmlns="http://www.w3.org/2000/svg" viewBox="0 0 40 40"><symbol id="a" viewBox="0 0 40 40" xmlns="http://www.w3.org/2000/svg"><path d="M5 12.5h30V8.75a1.25 1.25 0 0 0-1.25-1.25H6.25A1.25 1.25 0 0 0 5 8.75v3.75z" fill="#C3DDF8"/><path d="M33.75 7.5H6.25C5.56 7.5 5 8.06 5 8.75v22.5c0 .69.56 1.25 1.25 1.25h27.5c.69 0 1.25-.56 1.25-1.25V8.75c0-.69-.56-1.25-1.25-1.25zM5 12.5h30" stroke="#0271E1" stroke-width="2" stroke-linecap="round" stroke-linejoin="round" fill="none"/><path d="M26.25 17.5a6.25 6.25 0 0 1-12.5 0" stroke="#0271E1" stroke-width="2" stroke-linecap="round" stroke-linejoin="round" fill="none"/></symbol><use xlink:href="#a" xmlns:xlink="http://www.w3.org/1999/xlink"/></svg>