<svg xmlns="http://www.w3.org/2000/svg" viewBox="0 0 40 40"><symbol id="a" viewBox="0 0 40 40" xmlns="http://www.w3.org/2000/svg"><path d="M32.5 7.5h-25A2.5 2.5 0 0 0 5 10v17.5A2.5 2.5 0 0 0 7.5 30h25a2.5 2.5 0 0 0 2.5-2.5V10a2.5 2.5 0 0 0-2.5-2.5zm-15 16.25v-10l7.5 5-7.5 5z" fill="#C3DDF8"/><path d="M7.5 30h25a2.5 2.5 0 0 0 2.5-2.5V10a2.5 2.5 0 0 0-2.5-2.5h-25A2.5 2.5 0 0 0 5 10v17.5A2.5 2.5 0 0 0 7.5 30zM25 35H15" stroke="#0271E1" stroke-width="2" stroke-linecap="round" stroke-linejoin="round" fill="none"/><path d="m25 18.75-7.5-5v10l7.5-5z" stroke="#0271E1" stroke-width="2" stroke-linecap="round" stroke-linejoin="round" fill="none"/></symbol><use xlink:href="#a" xmlns:xlink="http://www.w3.org/1999/xlink"/></svg>