<svg xmlns="http://www.w3.org/2000/svg" viewBox="0 0 40 40"><symbol id="a" viewBox="0 0 40 40" xmlns="http://www.w3.org/2000/svg"><path d="m20 33.75-6.25 2.5v-5l2.5-2.5v-5l-12.5 2.5v-5L16.25 15l.018-7.5a3.75 3.75 0 0 1 7.5 0l.017 7.5 12.5 6.25v5l-12.5-2.5v5l2.465 2.5v5L20 33.75z" fill="#C3DDF8"/><path d="m20 33.75-6.25 2.5v-5l2.5-2.5v-5l-12.5 2.5v-5L16.25 15l.018-7.5a3.75 3.75 0 0 1 7.5 0l.017 7.5 12.5 6.25v5l-12.5-2.5v5l2.465 2.5v5L20 33.75z" stroke="#0271E1" stroke-width="2" stroke-linecap="round" stroke-linejoin="round" fill="none"/></symbol><use xlink:href="#a" xmlns:xlink="http://www.w3.org/1999/xlink"/></svg>