<svg xmlns="http://www.w3.org/2000/svg" viewBox="0 0 40 40"><symbol id="a" viewBox="0 0 40 40" xmlns="http://www.w3.org/2000/svg"><path d="M6.25 13.75h27.5V7.5a1.25 1.25 0 0 0-1.25-1.25h-25A1.25 1.25 0 0 0 6.25 7.5v6.25z" fill="#C3DDF8"/><path d="M32.5 6.25h-25c-.69 0-1.25.56-1.25 1.25v25c0 .69.56 1.25 1.25 1.25h25c.69 0 1.25-.56 1.25-1.25v-25c0-.69-.56-1.25-1.25-1.25zm-5-2.5v5m-15-5v5m-6.25 5h27.5" stroke="#0271E1" stroke-width="2" stroke-linecap="round" stroke-linejoin="round" fill="none"/><path d="M14.375 20h4.375l-2.5 3.125a2.499 2.499 0 1 1-1.767 4.268m8.017-5.518L25 20v8.125" stroke="#0271E1" stroke-width="2" stroke-linecap="round" stroke-linejoin="round" fill="none"/></symbol><use xlink:href="#a" xmlns:xlink="http://www.w3.org/1999/xlink"/></svg>